<?xml version="1.0" standalone="no"?><!DOCTYPE svg PUBLIC "-//W3C//DTD SVG 1.1//EN" "http://www.w3.org/Graphics/SVG/1.1/DTD/svg11.dtd"><svg t="1774870739448" class="icon" viewBox="0 0 1024 1024" version="1.1" xmlns="http://www.w3.org/2000/svg" p-id="11081" xmlns:xlink="http://www.w3.org/1999/xlink" width="200" height="200"><path d="M326.516364 763.764364H236.450909a64.139636 64.139636 0 0 1-59.205818-36.072728c-4.654545-8.378182-6.609455-17.966545-5.771636-27.508363a179.479273 179.479273 0 0 0-27.508364-97.186909 180.317091 180.317091 0 0 0-24.808727-29.463273 416.209455 416.209455 0 0 1-49.524364-66.327273 357.841455 357.841455 0 0 1-33.047273-64.698182A213.317818 213.317818 0 0 1 23.738182 378.414545a292.072727 292.072727 0 0 1 7.168-72.610909 262.609455 262.609455 0 0 1 45.149091-100.258909 317.905455 317.905455 0 0 1 119.482182-102.4c20.573091-9.774545 42.309818-17.082182 64.698181-21.736727a339.409455 339.409455 0 0 1 82.571637-6.609455c37.934545 1.396364 75.264 9.867636 110.08 25.041455 22.155636 10.193455 42.961455 23.04 61.905454 38.306909a333.079273 333.079273 0 0 1 72.145455 80.058182c17.687273 27.648 30.161455 58.228364 36.910545 90.298182 5.818182 25.925818 7.68 52.596364 5.492364 79.034182a218.018909 218.018909 0 0 1-16.523636 65.768727 369.431273 369.431273 0 0 1-52.829091 91.368727 388.142545 388.142545 0 0 1-29.742546 34.164364c-11.636364 11.869091-20.945455 25.739636-27.508363 41.006545a195.956364 195.956364 0 0 0-16.80291 47.616c-1.396364 10.193455-1.396364 20.107636-2.466909 30.021818a147.549091 147.549091 0 0 1-3.025454 21.736728c-5.026909 14.894545-15.546182 27.322182-29.463273 34.676363a69.632 69.632 0 0 1-34.676364 8.517818l-89.739636 1.396364z m-31.930182-605.556364c-9.122909 0-18.478545 1.629091-27.554909 3.258182a179.479273 179.479273 0 0 0-62.184728 22.341818c-17.221818 10.007273-32.954182 22.528-46.545454 37.143273a195.165091 195.165091 0 0 0-36.305455 53.387636 200.657455 200.657455 0 0 0-15.732363 79.266909 23.133091 23.133091 0 1 0 46.266182 2.466909v-11.543272c0.837818-14.056727 3.770182-27.880727 8.843636-41.006546 11.031273-28.392727 30.208-52.875636 55.016727-70.469818a140.101818 140.101818 0 0 1 78.987637-28.904727c5.259636-0.046545 10.519273-0.512 15.685818-1.396364a19.549091 19.549091 0 0 0 15.965091-12.939636 30.254545 30.254545 0 0 0 0-15.685819 19.549091 19.549091 0 0 0-17.594182-15.96509h-14.894546z m-87.04 688.128h237.847273a17.873455 17.873455 0 0 1 18.757818 16.290909v50.036364a17.873455 17.873455 0 0 1-18.757818 16.290909H207.592727a17.873455 17.873455 0 0 1-18.664727-16.290909v-50.082909a17.873455 17.873455 0 0 1 18.711273-16.244364z" fill="#1A69D0" opacity=".3" p-id="11082"></path><path d="M601.786182 834.513455h-106.821818A75.403636 75.403636 0 0 1 424.773818 791.272727a60.043636 60.043636 0 0 1-6.888727-31.650909 220.206545 220.206545 0 0 0-33.047273-117.527273 215.272727 215.272727 0 0 0-29.184-35.793454 491.892364 491.892364 0 0 1-58.88-80.058182 447.301818 447.301818 0 0 1-39.377454-78.754909 267.822545 267.822545 0 0 1-13.498182-80.942545 352.628364 352.628364 0 0 1 8.564363-88.343273c9.728-43.287273 28.485818-83.968 55.063273-119.482182A378.228364 378.228364 0 0 1 449.024 35.933091a344.622545 344.622545 0 0 1 77.032727-27.508364 391.726545 391.726545 0 0 1 96.628364-7.726545 332.520727 332.520727 0 0 1 201.541818 77.637818 400.756364 400.756364 0 0 1 85.550546 97.186909c21.131636 33.745455 35.933091 71.074909 43.752727 110.08 6.656 31.138909 8.704 63.022545 6.050909 94.72a278.016 278.016 0 0 1-19.549091 79.825455 460.241455 460.241455 0 0 1-98.210909 151.645091c-13.498182 14.661818-24.436364 31.511273-32.209455 49.803636a239.243636 239.243636 0 0 0-19.828363 57.856c-1.954909 12.101818-1.954909 24.203636-3.025455 36.072727-0.558545 9.262545-1.861818 18.432-3.863273 27.508364-5.585455 18.059636-18.199273 33.093818-34.955636 41.844363a78.522182 78.522182 0 0 1-40.727273 10.705455l-105.425454-1.070545z m-22.062546-741.28291c-11.543273 0-23.086545 2.187636-34.397091 4.096a228.212364 228.212364 0 0 0-77.358545 27.55491c-21.876364 12.334545-41.704727 27.927273-58.88 46.219636a229.841455 229.841455 0 0 0-44.869818 66.094545A250.507636 250.507636 0 0 0 344.389818 335.127273a29.742545 29.742545 0 0 0 9.914182 23.412363c6.516364 6.144 15.685818 8.704 24.482909 6.842182a29.742545 29.742545 0 0 0 23.133091-27.461818v-14.615273c0.791273-17.408 4.189091-34.583273 10.193455-50.920727A194.606545 194.606545 0 0 1 480.349091 185.716364a173.707636 173.707636 0 0 1 97.978182-35.514182l19.828363-1.675637a24.203636 24.203636 0 0 0 19.549091-16.244363 29.742545 29.742545 0 0 0 0-19.549091 24.203636 24.203636 0 0 0-21.504-19.549091h-16.523636zM464.151273 901.399273h275.269818a21.457455 21.457455 0 0 1 21.410909 21.457454v66.606546a21.736727 21.736727 0 0 1-21.410909 22.062545H464.151273a21.736727 21.736727 0 0 1-21.504-21.783273v-67.16509a21.457455 21.457455 0 0 1 21.504-21.178182z" fill="#1A69D0" p-id="11083"></path></svg>